REM DIRINDEX 1\2,1\3,1\4,1\5
REM DIRNAME folder01,folder02,folder03,folder04,folder05
TITLE ""
FILE "1800_171.mp3" MP3
  TRACK 01 AUDIO
    TITLE "2:cjc044_5724"
    INDEX 01 00:00:00
  TRACK 02 AUDIO
    TITLE "0:"
    INDEX 01 00:01:22
  TRACK 03 AUDIO
    TITLE "3:cjc044_5725"
    INDEX 01 00:01:69
  TRACK 04 AUDIO
    TITLE "0:"
    INDEX 01 00:03:02
  TRACK 05 AUDIO
    TITLE "4:cjc044_5726"
    INDEX 01 00:03:49
  TRACK 06 AUDIO
    TITLE "0:"
    INDEX 01 00:05:10
  TRACK 07 AUDIO
    TITLE "2:cjc044_5727"
    INDEX 01 00:06:59
  TRACK 08 AUDIO
    TITLE "0:"
    INDEX 01 00:08:09
  TRACK 09 AUDIO
    TITLE "3:cjc044_5728"
    INDEX 01 00:08:58
  TRACK 10 AUDIO
    TITLE "0:"
    INDEX 01 00:09:73
  TRACK 11 AUDIO
    TITLE "4:cjc044_5729"
    INDEX 01 00:10:51
  TRACK 12 AUDIO
    TITLE "0:"
    INDEX 01 00:12:03
  TRACK 13 AUDIO
    TITLE "2:cjc044_5730"
    INDEX 01 00:13:53
  TRACK 14 AUDIO
    TITLE "0:"
    INDEX 01 00:15:05
  TRACK 15 AUDIO
    TITLE "3:cjc044_5731"
    INDEX 01 00:15:54
  TRACK 16 AUDIO
    TITLE "0:"
    INDEX 01 00:16:69
  TRACK 17 AUDIO
    TITLE "4:cjc044_5732"
    INDEX 01 00:17:45
  TRACK 18 AUDIO
    TITLE "0:"
    INDEX 01 00:18:72
  TRACK 19 AUDIO
    TITLE "2:cjc044_5733"
    INDEX 01 00:20:45
  TRACK 20 AUDIO
    TITLE "0:"
    INDEX 01 00:21:70
  TRACK 21 AUDIO
    TITLE "3:cjc044_5734"
    INDEX 01 00:22:40
  TRACK 22 AUDIO
    TITLE "0:"
    INDEX 01 00:23:61
  TRACK 23 AUDIO
    TITLE "4:cjc044_5735"
    INDEX 01 00:24:29
  TRACK 24 AUDIO
    TITLE "0:"
    INDEX 01 00:25:56
  TRACK 25 AUDIO
    TITLE "2:cjc044_5736"
    INDEX 01 00:27:30
  TRACK 26 AUDIO
    TITLE "0:"
    INDEX 01 00:28:49
  TRACK 27 AUDIO
    TITLE "3:cjc044_5737"
    INDEX 01 00:29:25
  TRACK 28 AUDIO
    TITLE "0:"
    INDEX 01 00:30:28
  TRACK 29 AUDIO
    TITLE "4:cjc044_5738"
    INDEX 01 00:31:02
  TRACK 30 AUDIO
    TITLE "0:"
    INDEX 01 00:32:21
  TRACK 31 AUDIO
    TITLE "2:cjc044_5739"
    INDEX 01 00:33:73
  TRACK 32 AUDIO
    TITLE "0:"
    INDEX 01 00:35:25
  TRACK 33 AUDIO
    TITLE "3:cjc044_5740"
    INDEX 01 00:35:74
  TRACK 34 AUDIO
    TITLE "0:"
    INDEX 01 00:37:20
  TRACK 35 AUDIO
    TITLE "4:cjc044_5741"
    INDEX 01 00:37:69
  TRACK 36 AUDIO
    TITLE "0:"
    INDEX 01 00:39:23
  TRACK 37 AUDIO
    TITLE "2:cjc044_5742"
    INDEX 01 00:40:73
  TRACK 38 AUDIO
    TITLE "0:"
    INDEX 01 00:42:21
  TRACK 39 AUDIO
    TITLE "3:cjc044_5743"
    INDEX 01 00:42:72
  TRACK 40 AUDIO
    TITLE "0:"
    INDEX 01 00:44:09
  TRACK 41 AUDIO
    TITLE "4:cjc044_5744"
    INDEX 01 00:44:58
  TRACK 42 AUDIO
    TITLE "0:"
    INDEX 01 00:46:13
  TRACK 43 AUDIO
    TITLE "2:cjc044_5745"
    INDEX 01 00:47:64
  TRACK 44 AUDIO
    TITLE "0:"
    INDEX 01 00:49:23
  TRACK 45 AUDIO
    TITLE "3:cjc044_5746"
    INDEX 01 00:49:72
  TRACK 46 AUDIO
    TITLE "0:"
    INDEX 01 00:51:11
  TRACK 47 AUDIO
    TITLE "4:cjc044_5747"
    INDEX 01 00:51:58
  TRACK 48 AUDIO
    TITLE "0:"
    INDEX 01 00:53:25
  TRACK 49 AUDIO
    TITLE "2:cjc044_5748"
    INDEX 01 00:54:74
  TRACK 50 AUDIO
    TITLE "0:"
    INDEX 01 00:56:24
  TRACK 51 AUDIO
    TITLE "3:cjc044_5749"
    INDEX 01 00:56:72
  TRACK 52 AUDIO
    TITLE "0:"
    INDEX 01 00:58:67
  TRACK 53 AUDIO
    TITLE "4:cjc044_5750"
    INDEX 01 00:59:38
  TRACK 54 AUDIO
    TITLE "0:"
    INDEX 01 01:00:62
  TRACK 55 AUDIO
    TITLE "2:cjc044_5751"
    INDEX 01 01:02:38
  TRACK 56 AUDIO
    TITLE "0:"
    INDEX 01 01:03:67
  TRACK 57 AUDIO
    TITLE "3:cjc044_5752"
    INDEX 01 01:04:43
  TRACK 58 AUDIO
    TITLE "0:"
    INDEX 01 01:05:50
  TRACK 59 AUDIO
    TITLE "4:cjc044_5753"
    INDEX 01 01:06:24
  TRACK 60 AUDIO
    TITLE "0:"
    INDEX 01 01:07:53
  TRACK 61 AUDIO
    TITLE "2:cjc044_5754"
    INDEX 01 01:09:28
  TRACK 62 AUDIO
    TITLE "0:"
    INDEX 01 01:10:51
  TRACK 63 AUDIO
    TITLE "3:cjc044_5755"
    INDEX 01 01:11:27
  TRACK 64 AUDIO
    TITLE "0:"
    INDEX 01 01:12:50
  TRACK 65 AUDIO
    TITLE "4:cjc044_5756"
    INDEX 01 01:13:22
  TRACK 66 AUDIO
    TITLE "0:"
    INDEX 01 01:14:45
  TRACK 67 AUDIO
    TITLE "2:cjc044_5757"
    INDEX 01 01:16:22
  TRACK 68 AUDIO
    TITLE "0:"
    INDEX 01 01:17:41
  TRACK 69 AUDIO
    TITLE "3:cjc044_5758"
    INDEX 01 01:18:09
  TRACK 70 AUDIO
    TITLE "0:"
    INDEX 01 01:19:40
  TRACK 71 AUDIO
    TITLE "4:cjc044_5759"
    INDEX 01 01:20:10
  TRACK 72 AUDIO
    TITLE "0:"
    INDEX 01 01:21:31
  TRACK 73 AUDIO
    TITLE "2:cjc044_5760"
    INDEX 01 01:23:03
  TRACK 74 AUDIO
    TITLE "0:"
    INDEX 01 01:24:24
  TRACK 75 AUDIO
    TITLE "3:cjc044_5761"
    INDEX 01 01:24:71
  TRACK 76 AUDIO
    TITLE "0:"
    INDEX 01 01:26:46
  TRACK 77 AUDIO
    TITLE "4:cjc044_5762"
    INDEX 01 01:27:18
  TRACK 78 AUDIO
    TITLE "0:"
    INDEX 01 01:28:41
  TRACK 79 AUDIO
    TITLE "2:cjc044_5763"
    INDEX 01 01:30:11
  TRACK 80 AUDIO
    TITLE "0:"
    INDEX 01 01:31:55
  TRACK 81 AUDIO
    TITLE "3:cjc044_5764"
    INDEX 01 01:32:27
  TRACK 82 AUDIO
    TITLE "0:"
    INDEX 01 01:33:52
  TRACK 83 AUDIO
    TITLE "4:cjc044_5765"
    INDEX 01 01:34:22
  TRACK 84 AUDIO
    TITLE "0:"
    INDEX 01 01:35:65
  TRACK 85 AUDIO
    TITLE "2:cjc044_5766"
    INDEX 01 01:37:40
  TRACK 86 AUDIO
    TITLE "0:"
    INDEX 01 01:38:71
  TRACK 87 AUDIO
    TITLE "3:cjc044_5767"
    INDEX 01 01:39:43
  TRACK 88 AUDIO
    TITLE "0:"
    INDEX 01 01:40:58
  TRACK 89 AUDIO
    TITLE "4:cjc044_5768"
    INDEX 01 01:41:30
  TRACK 90 AUDIO
    TITLE "0:"
    INDEX 01 01:42:59
  TRACK 91 AUDIO
    TITLE "2:cjc044_5769"
    INDEX 01 01:44:32
  TRACK 92 AUDIO
    TITLE "0:"
    INDEX 01 01:45:71
  TRACK 93 AUDIO
    TITLE "3:cjc044_5770"
    INDEX 01 01:46:39
  TRACK 94 AUDIO
    TITLE "0:"
    INDEX 01 01:47:42
  TRACK 95 AUDIO
    TITLE "4:cjc044_5771"
    INDEX 01 01:48:12
  TRACK 96 AUDIO
    TITLE "0:"
    INDEX 01 01:49:51
  TRACK 97 AUDIO
    TITLE "2:cjc044_5772"
    INDEX 01 01:51:19
  TRACK 98 AUDIO
    TITLE "0:"
    INDEX 01 01:52:28
  TRACK 99 AUDIO
    TITLE "3:cjc044_5773"
    INDEX 01 01:53:00
  TRACK 100 AUDIO
    TITLE "0:"
    INDEX 01 01:54:13
  TRACK 101 AUDIO
    TITLE "4:cjc044_5774"
    INDEX 01 01:54:58
  TRACK 102 AUDIO
    TITLE "0:"
    INDEX 01 01:55:65
  TRACK 103 AUDIO
    TITLE "2:cjc044_5775"
    INDEX 01 01:57:41
  TRACK 104 AUDIO
    TITLE "0:"
    INDEX 01 01:58:66
  TRACK 105 AUDIO
    TITLE "3:cjc044_5776"
    INDEX 01 01:59:36
  TRACK 106 AUDIO
    TITLE "0:"
    INDEX 01 02:00:65
  TRACK 107 AUDIO
    TITLE "4:cjc044_5777"
    INDEX 01 02:01:41
  TRACK 108 AUDIO
    TITLE "0:"
    INDEX 01 02:02:67
  TRACK 109 AUDIO
    TITLE "2:cjc044_5778"
    INDEX 01 02:04:35
  TRACK 110 AUDIO
    TITLE "0:"
    INDEX 01 02:05:42
  TRACK 111 AUDIO
    TITLE "3:cjc044_5779"
    INDEX 01 02:06:14
  TRACK 112 AUDIO
    TITLE "0:"
    INDEX 01 02:07:22
  TRACK 113 AUDIO
    TITLE "4:cjc044_5780"
    INDEX 01 02:07:65
  TRACK 114 AUDIO
    TITLE "0:"
    INDEX 01 02:09:01
